# xmcd
#
# Track frame offsets:
#	150
#	12822
#	22069
#	35330
#	49803
#	63025
#	75461
#	88491
#	100126
#	113360
#	122879
#	133686
#	145529
#	159769
#	171693
#	185763
#	197996
#	211691
#	225387
#	235207
#
# Disc length: 3313 seconds
#
# Revision: 1
# Processed by: cddbd v1.4PL0 Copyright (c) Steve Scherf et al.
# Submitted via: audiograbber 1.81.02
#
DISCID=060cef14
DTITLE=Howlin' Wolf - The Sun Years
DYEAR=2000
DGENRE=Blues
TTITLE0=How Many More Years
TTITLE1=Smile At Me
TTITLE2=My Baby Walked Off
TTITLE3=My Troubles And Me
TTITLE4=Everybody's In The Mood
TTITLE5=Bluebird
TTITLE6=Well That's All Right
TTITLE7=Baby Ride With Me
TTITLE8=California Boogie
TTITLE9=Look A Here Baby
TTITLE10=Mr. Highway Man
TTITLE11=Chocolate Drop
TTITLE12=Color And Kind
TTITLE13=Dorothy Mae
TTITLE14=Decoration Day
TTITLE15=Oh Red
TTITLE16=Drinkin' C.V. Wine
TTITLE17=My Last Affair
TTITLE18=Come Back Home
TTITLE19=California Blues
EXTD=
EXTT0=
EXTT1=
EXTT2=
EXTT3=
EXTT4=
EXTT5=
EXTT6=
EXTT7=
EXTT8=
EXTT9=
EXTT10=
EXTT11=
EXTT12=
EXTT13=
EXTT14=
EXTT15=
EXTT16=
EXTT17=
EXTT18=
EXTT19=
PLAYORDER=
